<?xml version='1.0' encoding='ascii'?>
<svg xmlns="http://www.w3.org/2000/svg" height="256" version="1.1" width="256">
    <g id="View Layer_LineSet" inkscape:groupmode="lineset" inkscape:label="View Layer_LineSet" xmlns:inkscape="http://www.inkscape.org/namespaces/inkscape">
        <g id="fills" inkscape:groupmode="layer" inkscape:label="fills" xmlns:inkscape="http://www.inkscape.org/namespaces/inkscape">
            <path d=" M 208.000, 12.160 208.000, 39.040 208.049, 39.977 208.196, 40.903 208.439, 41.809 208.775, 42.684 209.200, 43.520 209.711, 44.307 210.301, 45.035 210.965, 45.699 211.693, 46.289 212.480, 46.800 213.316, 47.225 214.191, 47.561 215.097, 47.804 216.023, 47.951 216.960, 48.000 243.840, 48.000 244.777, 47.951 245.703, 47.804 246.609, 47.561 247.484, 47.225 248.320, 46.800 249.107, 46.289 249.835, 45.699 250.499, 45.035 251.089, 44.307 251.600, 43.520 252.025, 42.684 252.361, 41.809 252.604, 40.903 252.751, 39.977 252.800, 39.040 252.800, 12.160 252.751, 11.223 252.604, 10.297 252.361, 9.391 252.025, 8.516 251.600, 7.680 251.089, 6.893 250.499, 6.165 249.835, 5.501 249.107, 4.911 248.320, 4.400 247.484, 3.975 246.609, 3.639 245.703, 3.396 244.777, 3.249 243.840, 3.200 216.960, 3.200 216.023, 3.249 215.097, 3.396 214.191, 3.639 213.316, 3.975 212.480, 4.400 211.693, 4.911 210.965, 5.501 210.301, 6.165 209.711, 6.893 209.200, 7.680 208.775, 8.516 208.439, 9.391 208.196, 10.297 208.049, 11.223 208.000, 12.160  z" fill="#fff" fill-opacity="1.0" fill_rule="evenodd" stroke="none" />
            <path d=" M 208.000, 63.360 208.000, 90.240 208.049, 91.177 208.196, 92.103 208.439, 93.009 208.775, 93.884 209.200, 94.720 209.711, 95.507 210.301, 96.235 210.965, 96.899 211.693, 97.489 212.480, 98.000 213.316, 98.425 214.191, 98.761 215.097, 99.004 216.023, 99.151 216.960, 99.200 243.840, 99.200 244.777, 99.151 245.703, 99.004 246.609, 98.761 247.484, 98.425 248.320, 98.000 249.107, 97.489 249.835, 96.899 250.499, 96.235 251.089, 95.507 251.600, 94.720 252.025, 93.884 252.361, 93.009 252.604, 92.103 252.751, 91.177 252.800, 90.240 252.800, 63.360 252.751, 62.423 252.604, 61.497 252.361, 60.591 252.025, 59.716 251.600, 58.880 251.089, 58.093 250.499, 57.365 249.835, 56.701 249.107, 56.111 248.320, 55.600 247.484, 55.175 246.609, 54.839 245.703, 54.596 244.777, 54.449 243.840, 54.400 216.960, 54.400 216.023, 54.449 215.097, 54.596 214.191, 54.839 213.316, 55.175 212.480, 55.600 211.693, 56.111 210.965, 56.701 210.301, 57.365 209.711, 58.093 209.200, 58.880 208.775, 59.716 208.439, 60.591 208.196, 61.497 208.049, 62.423 208.000, 63.360  z" fill="#fff" fill-opacity="1.0" fill_rule="evenodd" stroke="none" />
            <path d=" M 208.000, 114.560 208.000, 141.440 208.049, 142.377 208.196, 143.303 208.439, 144.209 208.775, 145.084 209.200, 145.920 209.711, 146.707 210.301, 147.435 210.965, 148.099 211.693, 148.689 212.480, 149.200 213.316, 149.625 214.191, 149.961 215.097, 150.204 216.023, 150.351 216.960, 150.400 243.840, 150.400 244.777, 150.351 245.703, 150.204 246.609, 149.961 247.484, 149.625 248.320, 149.200 249.107, 148.689 249.835, 148.099 250.499, 147.435 251.089, 146.707 251.600, 145.920 252.025, 145.084 252.361, 144.209 252.604, 143.303 252.751, 142.377 252.800, 141.440 252.800, 114.560 252.751, 113.623 252.604, 112.697 252.361, 111.791 252.025, 110.916 251.600, 110.080 251.089, 109.293 250.499, 108.565 249.835, 107.901 249.107, 107.311 248.320, 106.800 247.484, 106.375 246.609, 106.039 245.703, 105.796 244.777, 105.649 243.840, 105.600 216.960, 105.600 216.023, 105.649 215.097, 105.796 214.191, 106.039 213.316, 106.375 212.480, 106.800 211.693, 107.311 210.965, 107.901 210.301, 108.565 209.711, 109.293 209.200, 110.080 208.775, 110.916 208.439, 111.791 208.196, 112.697 208.049, 113.623 208.000, 114.560  z" fill="#fff" fill-opacity="1.0" fill_rule="evenodd" stroke="none" />
            <path d=" M 208.000, 165.760 208.000, 192.640 208.049, 193.577 208.196, 194.503 208.439, 195.409 208.775, 196.284 209.200, 197.120 209.711, 197.907 210.301, 198.635 210.965, 199.299 211.693, 199.889 212.480, 200.400 213.316, 200.825 214.191, 201.161 215.097, 201.404 216.023, 201.551 216.960, 201.600 243.840, 201.600 244.777, 201.551 245.703, 201.404 246.609, 201.161 247.484, 200.825 248.320, 200.400 249.107, 199.889 249.835, 199.299 250.499, 198.635 251.089, 197.907 251.600, 197.120 252.025, 196.284 252.361, 195.409 252.604, 194.503 252.751, 193.577 252.800, 192.640 252.800, 165.760 252.751, 164.823 252.604, 163.897 252.361, 162.991 252.025, 162.116 251.600, 161.280 251.089, 160.493 250.499, 159.765 249.835, 159.101 249.107, 158.511 248.320, 158.000 247.484, 157.575 246.609, 157.239 245.703, 156.996 244.777, 156.849 243.840, 156.800 216.960, 156.800 216.023, 156.849 215.097, 156.996 214.191, 157.239 213.316, 157.575 212.480, 158.000 211.693, 158.511 210.965, 159.101 210.301, 159.765 209.711, 160.493 209.200, 161.280 208.775, 162.116 208.439, 162.991 208.196, 163.897 208.049, 164.823 208.000, 165.760  z" fill="#fff" fill-opacity="1.0" fill_rule="evenodd" stroke="none" />
            <path d=" M 208.000, 216.960 208.000, 243.840 208.049, 244.777 208.196, 245.703 208.439, 246.609 208.775, 247.484 209.200, 248.320 209.711, 249.107 210.301, 249.835 210.965, 250.499 211.693, 251.089 212.480, 251.600 213.316, 252.025 214.191, 252.361 215.097, 252.604 216.023, 252.751 216.960, 252.800 243.840, 252.800 244.777, 252.751 245.703, 252.604 246.609, 252.361 247.484, 252.025 248.320, 251.600 249.107, 251.089 249.835, 250.499 250.499, 249.835 251.089, 249.107 251.600, 248.320 252.025, 247.484 252.361, 246.609 252.604, 245.703 252.751, 244.777 252.800, 243.840 252.800, 216.960 252.751, 216.023 252.604, 215.097 252.361, 214.191 252.025, 213.316 251.600, 212.480 251.089, 211.693 250.499, 210.965 249.835, 210.301 249.107, 209.711 248.320, 209.200 247.484, 208.775 246.609, 208.439 245.703, 208.196 244.777, 208.049 243.840, 208.000 216.960, 208.000 216.023, 208.049 215.097, 208.196 214.191, 208.439 213.316, 208.775 212.480, 209.200 211.693, 209.711 210.965, 210.301 210.301, 210.965 209.711, 211.693 209.200, 212.480 208.775, 213.316 208.439, 214.191 208.196, 215.097 208.049, 216.023 208.000, 216.960  z" fill="#fff" fill-opacity="1.0" fill_rule="evenodd" stroke="none" />
            <path d=" M 156.800, 12.160 156.800, 39.040 156.849, 39.977 156.996, 40.903 157.239, 41.809 157.575, 42.684 158.000, 43.520 158.511, 44.307 159.101, 45.035 159.765, 45.699 160.493, 46.289 161.280, 46.800 162.116, 47.225 162.991, 47.561 163.897, 47.804 164.823, 47.951 165.760, 48.000 192.640, 48.000 193.577, 47.951 194.503, 47.804 195.409, 47.561 196.284, 47.225 197.120, 46.800 197.907, 46.289 198.635, 45.699 199.299, 45.035 199.889, 44.307 200.400, 43.520 200.825, 42.684 201.161, 41.809 201.404, 40.903 201.551, 39.977 201.600, 39.040 201.600, 12.160 201.551, 11.223 201.404, 10.297 201.161, 9.391 200.825, 8.516 200.400, 7.680 199.889, 6.893 199.299, 6.165 198.635, 5.501 197.907, 4.911 197.120, 4.400 196.284, 3.975 195.409, 3.639 194.503, 3.396 193.577, 3.249 192.640, 3.200 165.760, 3.200 164.823, 3.249 163.897, 3.396 162.991, 3.639 162.116, 3.975 161.280, 4.400 160.493, 4.911 159.765, 5.501 159.101, 6.165 158.511, 6.893 158.000, 7.680 157.575, 8.516 157.239, 9.391 156.996, 10.297 156.849, 11.223 156.800, 12.160  z" fill="#fff" fill-opacity="1.0" fill_rule="evenodd" stroke="none" />
            <path d=" M 156.800, 216.960 156.800, 243.840 156.849, 244.777 156.996, 245.703 157.239, 246.609 157.575, 247.484 158.000, 248.320 158.511, 249.107 159.101, 249.835 159.765, 250.499 160.493, 251.089 161.280, 251.600 162.116, 252.025 162.991, 252.361 163.897, 252.604 164.823, 252.751 165.760, 252.800 192.640, 252.800 193.577, 252.751 194.503, 252.604 195.409, 252.361 196.284, 252.025 197.120, 251.600 197.907, 251.089 198.635, 250.499 199.299, 249.835 199.889, 249.107 200.400, 248.320 200.825, 247.484 201.161, 246.609 201.404, 245.703 201.551, 244.777 201.600, 243.840 201.600, 216.960 201.551, 216.023 201.404, 215.097 201.161, 214.191 200.825, 213.316 200.400, 212.480 199.889, 211.693 199.299, 210.965 198.635, 210.301 197.907, 209.711 197.120, 209.200 196.284, 208.775 195.409, 208.439 194.503, 208.196 193.577, 208.049 192.640, 208.000 165.760, 208.000 164.823, 208.049 163.897, 208.196 162.991, 208.439 162.116, 208.775 161.280, 209.200 160.493, 209.711 159.765, 210.301 159.101, 210.965 158.511, 211.693 158.000, 212.480 157.575, 213.316 157.239, 214.191 156.996, 215.097 156.849, 216.023 156.800, 216.960  z" fill="#fff" fill-opacity="1.0" fill_rule="evenodd" stroke="none" />
            <path d=" M 105.600, 12.160 105.600, 39.040 105.649, 39.977 105.796, 40.903 106.039, 41.809 106.375, 42.684 106.800, 43.520 107.311, 44.307 107.901, 45.035 108.565, 45.699 109.293, 46.289 110.080, 46.800 110.916, 47.225 111.791, 47.561 112.697, 47.804 113.623, 47.951 114.560, 48.000 141.440, 48.000 142.377, 47.951 143.303, 47.804 144.209, 47.561 145.084, 47.225 145.920, 46.800 146.707, 46.289 147.435, 45.699 148.099, 45.035 148.689, 44.307 149.200, 43.520 149.625, 42.684 149.961, 41.809 150.204, 40.903 150.351, 39.977 150.400, 39.040 150.400, 12.160 150.351, 11.223 150.204, 10.297 149.961, 9.391 149.625, 8.516 149.200, 7.680 148.689, 6.893 148.099, 6.165 147.435, 5.501 146.707, 4.911 145.920, 4.400 145.084, 3.975 144.209, 3.639 143.303, 3.396 142.377, 3.249 141.440, 3.200 114.560, 3.200 113.623, 3.249 112.697, 3.396 111.791, 3.639 110.916, 3.975 110.080, 4.400 109.293, 4.911 108.565, 5.501 107.901, 6.165 107.311, 6.893 106.800, 7.680 106.375, 8.516 106.039, 9.391 105.796, 10.297 105.649, 11.223 105.600, 12.160  z" fill="#fff" fill-opacity="1.0" fill_rule="evenodd" stroke="none" />
            <path d=" M 105.600, 114.560 105.600, 141.440 105.649, 142.377 105.796, 143.303 106.039, 144.209 106.375, 145.084 106.800, 145.920 107.311, 146.707 107.901, 147.435 108.565, 148.099 109.293, 148.689 110.080, 149.200 110.916, 149.625 111.791, 149.961 112.697, 150.204 113.623, 150.351 114.560, 150.400 141.440, 150.400 142.377, 150.351 143.303, 150.204 144.209, 149.961 145.084, 149.625 145.920, 149.200 146.707, 148.689 147.435, 148.099 148.099, 147.435 148.689, 146.707 149.200, 145.920 149.625, 145.084 149.961, 144.209 150.204, 143.303 150.351, 142.377 150.400, 141.440 150.400, 114.560 150.351, 113.623 150.204, 112.697 149.961, 111.791 149.625, 110.916 149.200, 110.080 148.689, 109.293 148.099, 108.565 147.435, 107.901 146.707, 107.311 145.920, 106.800 145.084, 106.375 144.209, 106.039 143.303, 105.796 142.377, 105.649 141.440, 105.600 114.560, 105.600 113.623, 105.649 112.697, 105.796 111.791, 106.039 110.916, 106.375 110.080, 106.800 109.293, 107.311 108.565, 107.901 107.901, 108.565 107.311, 109.293 106.800, 110.080 106.375, 110.916 106.039, 111.791 105.796, 112.697 105.649, 113.623 105.600, 114.560  z" fill="#fff" fill-opacity="1.0" fill_rule="evenodd" stroke="none" />
            <path d=" M 105.600, 216.960 105.600, 243.840 105.649, 244.777 105.796, 245.703 106.039, 246.609 106.375, 247.484 106.800, 248.320 107.311, 249.107 107.901, 249.835 108.565, 250.499 109.293, 251.089 110.080, 251.600 110.916, 252.025 111.791, 252.361 112.697, 252.604 113.623, 252.751 114.560, 252.800 141.440, 252.800 142.377, 252.751 143.303, 252.604 144.209, 252.361 145.084, 252.025 145.920, 251.600 146.707, 251.089 147.435, 250.499 148.099, 249.835 148.689, 249.107 149.200, 248.320 149.625, 247.484 149.961, 246.609 150.204, 245.703 150.351, 244.777 150.400, 243.840 150.400, 216.960 150.351, 216.023 150.204, 215.097 149.961, 214.191 149.625, 213.316 149.200, 212.480 148.689, 211.693 148.099, 210.965 147.435, 210.301 146.707, 209.711 145.920, 209.200 145.084, 208.775 144.209, 208.439 143.303, 208.196 142.377, 208.049 141.440, 208.000 114.560, 208.000 113.623, 208.049 112.697, 208.196 111.791, 208.439 110.916, 208.775 110.080, 209.200 109.293, 209.711 108.565, 210.301 107.901, 210.965 107.311, 211.693 106.800, 212.480 106.375, 213.316 106.039, 214.191 105.796, 215.097 105.649, 216.023 105.600, 216.960  z" fill="#fff" fill-opacity="1.0" fill_rule="evenodd" stroke="none" />
            <path d=" M 54.400, 12.160 54.400, 39.040 54.449, 39.977 54.596, 40.903 54.839, 41.809 55.175, 42.684 55.600, 43.520 56.111, 44.307 56.701, 45.035 57.365, 45.699 58.093, 46.289 58.880, 46.800 59.716, 47.225 60.591, 47.561 61.497, 47.804 62.423, 47.951 63.360, 48.000 90.240, 48.000 91.177, 47.951 92.103, 47.804 93.009, 47.561 93.884, 47.225 94.720, 46.800 95.507, 46.289 96.235, 45.699 96.899, 45.035 97.489, 44.307 98.000, 43.520 98.425, 42.684 98.761, 41.809 99.004, 40.903 99.151, 39.977 99.200, 39.040 99.200, 12.160 99.151, 11.223 99.004, 10.297 98.761, 9.391 98.425, 8.516 98.000, 7.680 97.489, 6.893 96.899, 6.165 96.235, 5.501 95.507, 4.911 94.720, 4.400 93.884, 3.975 93.009, 3.639 92.103, 3.396 91.177, 3.249 90.240, 3.200 63.360, 3.200 62.423, 3.249 61.497, 3.396 60.591, 3.639 59.716, 3.975 58.880, 4.400 58.093, 4.911 57.365, 5.501 56.701, 6.165 56.111, 6.893 55.600, 7.680 55.175, 8.516 54.839, 9.391 54.596, 10.297 54.449, 11.223 54.400, 12.160  z" fill="#fff" fill-opacity="1.0" fill_rule="evenodd" stroke="none" />
            <path d=" M 3.200, 12.160 3.200, 39.040 3.249, 39.977 3.396, 40.903 3.639, 41.809 3.975, 42.684 4.400, 43.520 4.911, 44.307 5.501, 45.035 6.165, 45.699 6.893, 46.289 7.680, 46.800 8.516, 47.225 9.391, 47.561 10.297, 47.804 11.223, 47.951 12.160, 48.000 39.040, 48.000 39.977, 47.951 40.903, 47.804 41.809, 47.561 42.684, 47.225 43.520, 46.800 44.307, 46.289 45.035, 45.699 45.699, 45.035 46.289, 44.307 46.800, 43.520 47.225, 42.684 47.561, 41.809 47.804, 40.903 47.951, 39.977 48.000, 39.040 48.000, 12.160 47.951, 11.223 47.804, 10.297 47.561, 9.391 47.225, 8.516 46.800, 7.680 46.289, 6.893 45.699, 6.165 45.035, 5.501 44.307, 4.911 43.520, 4.400 42.684, 3.975 41.809, 3.639 40.903, 3.396 39.977, 3.249 39.040, 3.200 12.160, 3.200 11.223, 3.249 10.297, 3.396 9.391, 3.639 8.516, 3.975 7.680, 4.400 6.893, 4.911 6.165, 5.501 5.501, 6.165 4.911, 6.893 4.400, 7.680 3.975, 8.516 3.639, 9.391 3.396, 10.297 3.249, 11.223 3.200, 12.160  z" fill="#fff" fill-opacity="1.0" fill_rule="evenodd" stroke="none" />
            <path d=" M 3.200, 63.360 3.200, 90.240 3.249, 91.177 3.396, 92.103 3.639, 93.009 3.975, 93.884 4.400, 94.720 4.911, 95.507 5.501, 96.235 6.165, 96.899 6.893, 97.489 7.680, 98.000 8.516, 98.425 9.391, 98.761 10.297, 99.004 11.223, 99.151 12.160, 99.200 39.040, 99.200 39.977, 99.151 40.903, 99.004 41.809, 98.761 42.684, 98.425 43.520, 98.000 44.307, 97.489 45.035, 96.899 45.699, 96.235 46.289, 95.507 46.800, 94.720 47.225, 93.884 47.561, 93.009 47.804, 92.103 47.951, 91.177 48.000, 90.240 48.000, 63.360 47.951, 62.423 47.804, 61.497 47.561, 60.591 47.225, 59.716 46.800, 58.880 46.289, 58.093 45.699, 57.365 45.035, 56.701 44.307, 56.111 43.520, 55.600 42.684, 55.175 41.809, 54.839 40.903, 54.596 39.977, 54.449 39.040, 54.400 12.160, 54.400 11.223, 54.449 10.297, 54.596 9.391, 54.839 8.516, 55.175 7.680, 55.600 6.893, 56.111 6.165, 56.701 5.501, 57.365 4.911, 58.093 4.400, 58.880 3.975, 59.716 3.639, 60.591 3.396, 61.497 3.249, 62.423 3.200, 63.360  z" fill="#fff" fill-opacity="1.0" fill_rule="evenodd" stroke="none" />
            <path d=" M 3.200, 114.560 3.200, 141.440 3.249, 142.377 3.396, 143.303 3.639, 144.209 3.975, 145.084 4.400, 145.920 4.911, 146.707 5.501, 147.435 6.165, 148.099 6.893, 148.689 7.680, 149.200 8.516, 149.625 9.391, 149.961 10.297, 150.204 11.223, 150.351 12.160, 150.400 39.040, 150.400 39.977, 150.351 40.903, 150.204 41.809, 149.961 42.684, 149.625 43.520, 149.200 44.307, 148.689 45.035, 148.099 45.699, 147.435 46.289, 146.707 46.800, 145.920 47.225, 145.084 47.561, 144.209 47.804, 143.303 47.951, 142.377 48.000, 141.440 48.000, 114.560 47.951, 113.623 47.804, 112.697 47.561, 111.791 47.225, 110.916 46.800, 110.080 46.289, 109.293 45.699, 108.565 45.035, 107.901 44.307, 107.311 43.520, 106.800 42.684, 106.375 41.809, 106.039 40.903, 105.796 39.977, 105.649 39.040, 105.600 12.160, 105.600 11.223, 105.649 10.297, 105.796 9.391, 106.039 8.516, 106.375 7.680, 106.800 6.893, 107.311 6.165, 107.901 5.501, 108.565 4.911, 109.293 4.400, 110.080 3.975, 110.916 3.639, 111.791 3.396, 112.697 3.249, 113.623 3.200, 114.560  z" fill="#fff" fill-opacity="1.0" fill_rule="evenodd" stroke="none" />
            <path d=" M 3.200, 165.760 3.200, 192.640 3.249, 193.577 3.396, 194.503 3.639, 195.409 3.975, 196.284 4.400, 197.120 4.911, 197.907 5.501, 198.635 6.165, 199.299 6.893, 199.889 7.680, 200.400 8.516, 200.825 9.391, 201.161 10.297, 201.404 11.223, 201.551 12.160, 201.600 39.040, 201.600 39.977, 201.551 40.903, 201.404 41.809, 201.161 42.684, 200.825 43.520, 200.400 44.307, 199.889 45.035, 199.299 45.699, 198.635 46.289, 197.907 46.800, 197.120 47.225, 196.284 47.561, 195.409 47.804, 194.503 47.951, 193.577 48.000, 192.640 48.000, 165.760 47.951, 164.823 47.804, 163.897 47.561, 162.991 47.225, 162.116 46.800, 161.280 46.289, 160.493 45.699, 159.765 45.035, 159.101 44.307, 158.511 43.520, 158.000 42.684, 157.575 41.809, 157.239 40.903, 156.996 39.977, 156.849 39.040, 156.800 12.160, 156.800 11.223, 156.849 10.297, 156.996 9.391, 157.239 8.516, 157.575 7.680, 158.000 6.893, 158.511 6.165, 159.101 5.501, 159.765 4.911, 160.493 4.400, 161.280 3.975, 162.116 3.639, 162.991 3.396, 163.897 3.249, 164.823 3.200, 165.760  z" fill="#fff" fill-opacity="1.0" fill_rule="evenodd" stroke="none" />
            <path d=" M 3.200, 216.960 3.200, 243.840 3.249, 244.777 3.396, 245.703 3.639, 246.609 3.975, 247.484 4.400, 248.320 4.911, 249.107 5.501, 249.835 6.165, 250.499 6.893, 251.089 7.680, 251.600 8.516, 252.025 9.391, 252.361 10.297, 252.604 11.223, 252.751 12.160, 252.800 39.040, 252.800 39.977, 252.751 40.903, 252.604 41.809, 252.361 42.684, 252.025 43.520, 251.600 44.307, 251.089 45.035, 250.499 45.699, 249.835 46.289, 249.107 46.800, 248.320 47.225, 247.484 47.561, 246.609 47.804, 245.703 47.951, 244.777 48.000, 243.840 48.000, 216.960 47.951, 216.023 47.804, 215.097 47.561, 214.191 47.225, 213.316 46.800, 212.480 46.289, 211.693 45.699, 210.965 45.035, 210.301 44.307, 209.711 43.520, 209.200 42.684, 208.775 41.809, 208.439 40.903, 208.196 39.977, 208.049 39.040, 208.000 12.160, 208.000 11.223, 208.049 10.297, 208.196 9.391, 208.439 8.516, 208.775 7.680, 209.200 6.893, 209.711 6.165, 210.301 5.501, 210.965 4.911, 211.693 4.400, 212.480 3.975, 213.316 3.639, 214.191 3.396, 215.097 3.249, 216.023 3.200, 216.960  z" fill="#fff" fill-opacity="1.0" fill_rule="evenodd" stroke="none" />
        </g>
    </g>
</svg>
